<svg width="456" height="456" xmlns="http://www.w3.org/2000/svg">
 <!-- Created with SVG Editor - http://github.com/mzalive/SVG Editor/ -->

 <g>
  <title>background</title>
  <rect fill="#fff" id="canvas_background" height="458" width="458" y="-1" x="-1"/>
  <g display="none" overflow="visible" y="0" x="0" height="100%" width="100%" id="canvasGrid">
   <rect fill="url(#gridpattern)" stroke-width="0" y="46.025425" x="1" height="400" width="580"/>
  </g>
 </g>
 <g>
  <title>Layer 1</title>
  <g stroke="null" id="svg_6">
   <path stroke="null" id="svg_4" fill="#30BF39" d="m228.391132,454.659586c125.790336,0 227.76481,-101.974474 227.76481,-227.76481c0,-125.790336 -101.974474,-227.76434 -227.76481,-227.76434c-125.790336,0 -227.76434,101.974004 -227.76434,227.76434c0,125.790336 101.974004,227.76481 227.76434,227.76481z"/>
   <path stroke="null" id="svg_5" fill="white" d="m297.455628,248.346007c-2.938895,-1.469918 -18.368797,-10.286602 -21.307692,-11.02109c-2.938895,-1.469918 -5.14236,-1.469918 -7.346767,1.468977c-2.204406,2.938895 -8.816684,10.286602 -10.286602,11.755579c-2.203466,2.204406 -3.673383,2.204406 -6.612278,0.735429c-2.938895,-1.469918 -13.224556,-5.143301 -24.980135,-16.89888c-8.816684,-8.816684 -15.429903,-19.103286 -16.89888,-22.776669c-1.469918,-2.938895 0,-5.143301 1.468977,-6.612278c1.469918,-1.469918 2.938895,-3.673383 5.143301,-5.143301c2.204406,-1.468977 2.204406,-2.938895 3.673383,-5.14236c1.469918,-2.204406 0.735429,-3.674324 0,-5.877789c-0.734489,-2.204406 -6.612278,-17.633368 -8.816684,-24.246587c-2.203466,-6.612278 -5.14236,-5.14236 -6.612278,-5.877789c-2.204406,0 -3.673383,-0.734489 -5.877789,-0.734489c-2.938895,0 -6.612278,1.469918 -8.816684,3.673383c-2.938895,2.938895 -11.755579,10.286602 -11.755579,25.715564c0,15.428962 10.286602,31.593353 11.755579,33.06233c1.469918,2.204406 20.572263,36.001225 52.165616,49.96121c31.593353,13.959985 31.593353,9.551173 37.471143,9.551173c5.877789,0 19.102345,-7.346767 22.04124,-13.959045c2.938895,-7.347707 2.938895,-13.959985 2.204406,-14.694474c-1.469918,0 -3.673383,-0.735429 -6.612278,-2.938895zm-58.777894,75.675833c-20.572263,0 -39.675549,-5.877789 -56.574428,-16.897939l-39.674608,12.490067l13.224556,-38.205631c-12.490067,-17.633368 -19.837774,-38.94012 -19.837774,-60.9823c0,-57.307977 46.287827,-103.595803 103.596744,-103.595803c57.307977,0 102.861315,46.287827 102.861315,103.595803c0,57.308917 -46.287827,103.595803 -103.595803,103.595803zm0,-227.76387c-68.330007,0 -124.169007,55.838999 -124.169007,124.168066c0,22.776669 5.877789,44.817909 17.633368,63.921195l-22.775729,66.86009l69.063555,-22.042181c18.367857,10.286602 38.94012,15.429903 60.247812,15.429903c68.329067,0 124.168066,-55.83994 124.168066,-124.169007c0,-68.329067 -55.104511,-124.168066 -124.168066,-124.168066z"/>
  </g>
 </g>
</svg>